<?xml version="1.0"?>
<svg xmlns="http://www.w3.org/2000/svg" version="1.2" baseProfile="tiny" width="800" height="603" viewBox="0 0 800 603" stroke-linecap="round" stroke-linejoin="round">
<g id="map (1)">
<path d="M 5.1 550.35 8.29 546.32 14.29 540.33 15.21 537.25 14.75 535.76 16.15 532.19 18.21 529.19 19.06 529.01 20.75 526.3 17.94 522.36 17.27 520.87 15.68 509.45 16.05 507.86 11.56 506.27 11.56 504.49 12.88 502.71 14.19 500.37 13.81 496.91 11.11 495.5 10.62 489.89 7.26 487.92 6.42 486.99 10.44 482.22 5.85 479.59 8.48 478.57 9.41 477.73 11.38 476.51 11.66 474.92 12.04 474.26 12.22 472.3 12.88 471.56 12.72 470.91 15.6 469.47 18.59 467.97 20.8 466.87 24.52 464.24 26.43 460.42 24.8 457.98 26.17 456.39 28.99 455.63 31.81 455.66 34.09 454.78 36.55 453.42 38.4 451.6 38.78 449.37 37.73 448.02 35.72 446.77 33.52 445.85 31.81 445.45 29 444.14 26.35 443.73 24.77 442.9 25.22 440.34 25.71 439.93 27.27 439.43 27.84 438.97 28.16 437.82 27.81 435.64 27.99 434.64 28.88 433.57 31.07 431.88 31.81 430.52 33.45 428.46 37.42 425.63 39.03 423.08 40.22 421.78 42.14 421.11 44.38 420.62 46.46 419.88 50.76 417.68 51.55 418.06 53.08 419.66 54.04 420.17 56.55 420.12 58.48 419.16 60.15 418.02 61.98 417.45 64.06 417.78 70.22 420.31 74.74 421.21 77.05 420.9 78.5 419.31 78.26 416.85 76.19 415.78 71.48 415.11 67.95 412.82 67.19 412.09 66.43 410.94 66.22 410.51 68.78 406.18 70.43 404.03 72.31 402.1 77.09 398.62 81.08 394.4 83.61 393.33 84.98 393.43 87.56 394.23 89.21 394.16 91.17 393.34 91.82 392.24 92.06 390.83 92.75 389.13 95.1 386.67 100.46 382.85 103.24 378.98 106.62 375.88 106.56 375.76 105.92 374.59 103.02 372.21 102.24 370.48 101.67 368.23 102.57 366.68 103.72 365.35 103.97 363.79 103.35 362.86 102.57 362.71 101.69 362.76 100.84 362.45 99.56 361.3 96.97 358.28 96.37 357.35 96.05 356.39 96.15 355.4 96.53 354.78 96.97 354.21 97.29 353.39 97.71 351.42 97.81 350.09 97.15 349.04 95.25 347.9 94.37 348.15 93.5 347.68 91.76 345.9 89.73 345.16 88.12 344.05 86.93 342.5 86.16 340.49 86.16 340.48 84.51 340 81.23 339.78 77.72 339.91 75.39 340.49 75.07 340.58 74.73 340.6 74.4 340.58 74.07 340.49 73.73 339.96 72.54 338.1 74.55 336.34 77.83 334.87 80.17 333.34 80.72 331.46 80.57 329.69 80.82 328.25 82.59 327.34 84.36 327.76 85.64 328.62 86.49 328.06 86.97 324.28 84.06 325.06 81.09 325.11 78.25 324.3 75.83 322.51 73.01 318.27 71.22 317.3 68.73 318.74 68.34 319.66 68.29 322.01 67.84 323.11 66.74 324.09 65.55 324.54 58.31 324.87 57.58 324.66 56.16 323.79 55.56 323.57 54.82 323.72 53.39 324.44 52.87 324.57 47.62 324.26 44.64 324.08 41.46 324.46 38.72 324.39 36.12 323.77 34.02 322.36 33.14 322.02 32.09 321.78 30.56 321.82 30.06 319.59 27.87 315.87 27.09 312.66 25.92 310.9 25.65 309.83 25.65 304.93 25.3 304.18 23.19 301.21 22.73 300.01 22.07 297.49 18.21 288.92 18.93 288.6 19.01 288.03 19.73 287.26 19.94 286.43 19.73 285.6 19.01 284.83 19.01 284.01 19.61 283.48 19.65 283.41 19.38 283.23 19.01 282.37 19.97 280.69 20.67 279.81 21.62 279.02 22.25 277.2 21.86 275.44 21.15 273.84 20.73 272.47 20.73 266.73 21.49 265.31 27.13 258.17 29.67 256.09 28.57 252.87 24.01 245.3 25.65 241.27 25.07 239.23 24.18 231.46 24.45 229.74 23.24 228.77 17.46 222.37 15 221.38 13.8 220.65 13.29 219.47 12.39 218.79 10.46 219.04 8.6 219.6 7.94 219.91 6.65 219.36 6.83 218.01 7.44 216.37 7.56 214.93 6.83 214.31 2.64 212.47 2.84 211.88 3.1 210.69 3.39 210.02 2.64 210.02 1 210.76 1 210.02 3.4 209.32 5.79 208.08 7.61 206.34 8.31 204.21 8.04 202.86 6.97 201.22 6.73 199.74 7.38 198.86 10.19 198.1 14.81 190.83 15.03 190.19 15 187.38 14.5 185.09 13.23 182.27 11.61 179.64 10.02 177.93 15.81 178.22 18.69 177.67 19.91 175.89 20.41 173.57 23.54 169.76 24.68 170.08 27.05 169.69 29.46 168.97 31.81 168.67 33.31 170.06 33.34 171.61 32.98 173.18 33.26 174.61 34.64 175.59 36.5 175.95 40.26 176.04 43.8 177.38 50.78 181.51 52.8 181.22 53.08 181.18 54.42 177.64 55.15 169.17 57.79 165.69 61.64 164.56 64.53 165.22 66.44 164.85 67.44 160.61 67.46 160.6 69.83 159.81 74.56 161.31 77.11 160.62 76.81 157.21 77.19 139.87 77.41 138.11 78.1 137.21 79.08 136.41 79.24 135.37 77.52 133.73 78.91 132.6 80.42 134.06 81.92 134.92 83.57 135.38 86.85 135.74 87.57 135.92 88.23 135.92 89.25 135.54 89.82 134.86 89.98 134 90.41 133.23 91.76 132.85 93.97 132.57 103.07 133.71 105.35 133.74 113.84 132.43 114.53 131.44 114.42 128.73 113.99 127.04 113.14 125.06 111.98 123.23 111.97 123.21 110.58 121.9 108.62 121.28 104.67 120.94 103.45 119.98 104 119.95 104.67 118.87 105.45 117.07 105.47 116.01 105.34 115.1 105 114.28 104.42 113.48 103.84 113.14 101.94 112.45 101.1 111.85 100.46 110.95 98.2 104.43 97.89 102.45 98.39 100.65 101.98 96.03 102.53 90.85 102.45 85.52 104.07 80.45 105.5 77.65 105.91 75.29 106 72.97 106.52 70.31 108.01 67.96 109.97 65.83 111.32 63.52 110.91 60.58 112.03 60.53 113.16 60.65 113.28 60.69 135.36 66.85 142.93 67.24 145.22 67.67 147.62 68.43 149.87 69.49 151.72 70.88 155.37 73.61 156.32 75.15 156.44 77.65 155.4 81.5 155.85 82.87 158.1 84.49 160.47 85.55 161.58 85.29 162.51 84.16 164.37 82.64 166.63 81.82 168.61 81.95 170.58 82.44 172.83 82.67 180.45 81.09 183.12 80.91 202.61 83.81 207.61 83.84 225.27 74.68 232.55 72.09 252.42 68.68 271.64 61.59 274.99 60.86 277.16 59.75 288.79 53.8 296.83 51.3 300.93 50.95 308.8 51.76 331.6 57.27 337.52 59.91 350.22 70.66 353.69 73.61 360.99 76.67 369.43 77.55 388.93 76.8 391.57 76.17 397.83 75.81 416.26 80.8 422.7 80.59 446.94 76.86 485.75 70.89 511.48 63.12 523.4 57.37 527.72 56.19 532.22 55.51 536.7 53.83 545.25 49.23 561.12 40.68 563.54 39.48 566.09 38.69 568.71 38.27 571.45 38.15 576.95 36.86 592.99 29.74 598.93 27.92 621.41 25.25 650.03 29.86 655.39 31.62 657.98 32.17 691.37 30.9 741.33 21.46 754.87 18.91 760.12 16.38 769.15 9.59 775.18 3.23 776.91 2.4 779.09 1 780.46 2.31 780.61 3.7 780.41 4.9 780.53 5.41 782.17 5.63 785.81 7.04 786.49 6.78 787.25 6.11 788.04 5.6 788.79 5.78 789.31 6.42 789.91 7.59 790.43 8.24 794.53 10.87 795.34 11.21 796.12 12.74 793.98 19.44 795.34 20.97 796.29 21.69 796.52 23.38 796.61 26.78 797.38 28.2 798.28 29.42 798.96 30.76 799 32.5 798.95 32.53 795.24 34.82 787.57 40.67 787.57 40.68 787.53 40.69 775.16 51.32 751.19 71.91 735.03 85.8 731.85 87.97 728.57 89.22 691.37 95.6 683.59 96.65 680.05 97.97 677.65 100.63 677.65 100.65 677.64 100.65 677.64 100.66 667.05 117.35 666.07 120.56 662.21 150.66 662.22 152.66 662.69 154.74 665.76 160.58 665.78 160.58 665.78 160.59 675.05 176.97 676.35 180.82 676.92 184.75 677.43 201.25 676.77 205 674.87 208.63 670.83 213.6 665.17 220.55 665.17 220.56 665.16 220.56 665.14 220.56 664.04 224.17 662.99 235.87 657.98 250.68 656.8 257.99 656.9 260.77 657.58 280.54 658.6 301.5 658.33 304.64 657.3 307.6 636.71 340.48 636.71 340.49 632.4 348.37 629.67 351.57 626.16 353.46 596.71 360 579.12 368.82 565.86 375.47 552.59 382.11 539.33 388.75 534.66 391.09 526.07 395.4 512.81 402.04 499.55 408.68 486.28 415.32 473.03 421.97 459.77 428.61 446.5 435.25 433.24 441.89 419.98 448.53 406.71 455.18 393.45 461.83 380.19 468.47 366.93 475.12 337.55 490.4 311.9 503.96 301.73 509.34 280.84 520.37 265.57 528.65 245.02 539.78 224.47 550.9 213.42 556.87 203.9 562.01 183.38 573.14 170.1 580.31 170.08 580.32 151.72 590.45 132.44 601.63 130.91 602.08 129.22 602.02 121.56 600.31 118.96 600.25 116.88 601.29 112.55 598.51 96.14 596.81 91.76 596.35 89.82 595.32 83.06 594.74 80.69 594.13 78.92 593.28 68.38 584.82 60.65 580.31 56.75 576.99 55.44 576.38 54.82 576.55 53.46 577.59 52.87 577.84 52.15 577.72 50.91 577.32 50.15 577.25 45.71 577.76 44 577.71 42.55 577.67 42.12 577.58 42.09 577.07 41.42 575.67 36.02 568.73 34.89 566.72 34.81 564.46 35.17 562.42 34.61 561.06 31.81 560.88 30.07 561.15 28.82 560.78 27.77 559.94 26.67 558.79 27.12 558.85 27.51 558.36 27.67 557.58 27.48 556.78 27.02 556.57 25.47 556.59 24.88 556.42 22.81 554.64 21.67 554.08 8.78 551.55 7.67 550.36 7.68 550.33 7.18 550 6.56 549.91 5.85 550.04 5.1 550.35 Z"/>
</g>
</svg>