<svg fill-opacity="0.8" fill="#3498DB" stroke="#000000" stroke-width="1"  xmlns="http://www.w3.org/2000/svg" version="1.1" width="642" height="463.79999999996" viewbox="0 0 642 463.79999999996">
 <g>
  <g>
   <path d="M371.57999999994 155.45999999998 L391.91400000001 155.96399999998 L410.27999999994 156.30599999997 L456.18000000002 176.26799999996 L446.51999999994 190.11599999996 L434.48399999997 202.51799999998 L414.65999999997 191.07599999997 L370.76399999995 171.528 L371.57999999994 155.45999999998"/>
  </g>
 </g>
 <g>
  <g>
   <path d="M12.335999999976 -0.22200000003636 L148.79400000001 32.321999999994 L215.766 41.68199999998 L232.19999999995 36.80999999996 L247.16399999994 66.108 L246.666 89.705999999978 L249.73199999994 166.85999999997 L230.68800000001 160.33799999998 L220.88999999994 157.88999999998 L215.51999999994 156.88199999997 L208.80600000001 154.22399999999 L193.06199999994 150.35399999999 L185.40000000002 138.15599999997 L192.55799999993 132.84599999999 L195.16200000001 128.79599999998 L101.91600000002 123.50999999998 L86.489999999998 105.17399999998 L56.099999999986 105.17399999998 L42.180000000002 95.81399999999 L5.6519999999693 95.015999999958 L-0.024000000024671 90.113999999971 L8.2199999999659 24.995999999987 L7.1639999999888 14.837999999969 L1.48200000001 7.0979999999849 L12.335999999976 -0.22200000003636"/>
  </g>
 </g>
 <g>
  <g>
   <path d="M357.34799999997 166.97399999998 L362.52599999995 169.146 L365.77199999994 170.74799999996 L370.49999999994 172.14599999997 L404.77199999995 187.02599999996 L421.13999999998 195.05999999997 L433.97999999996 202.97399999998 L442.07999999998 194.94599999996 L451.51199999995 196.61399999997 L455.53800000002 197.68799999999 L458.92799999999 199.56599999998 L465.42599999995 203.82599999996 L466.79999999998 205.15199999998 L466.79999999998 206.45399999998 L465.52199999996 209.33999999998 L462.06000000001 214.332 L470.05199999995 218.29199999998 L472.06799999998 212.70599999997 L474.17399999995 209.706 L476.78400000001 208.19399999998 L487.26599999998 217.82999999999 L503.87999999998 236.69399999999 L525.30599999994 249.53399999997 L539.17199999998 256.55999999996 L552.3 264.77399999999 L575.75999999995 282.89999999997 L574.33199999997 283.90799999998 L572.87999999997 283.75199999999 L550.39199999996 277.61399999997 L527.81999999999 270.29399999999 L449.59199999994 242.57399999998 L393.05399999995 220.14599999999 L371.95199999994 212.34 L365.39999999994 209.63999999999 L365.88 183.35999999996 L365.03999999999 179.87999999997 L357.34799999997 169.85999999999 L357.34799999997 166.97399999998"/>
  </g>
 </g>
 <g>
  <g>
   <path d="M305.7 73.223999999982 L305.07599999996 77.597999999981 L302.46 81.623999999962 L301.82399999998 95.81399999999 L300.95999999995 104.16599999996 L247.80599999994 102.72599999998 L247.01999999996 93.17999999999 L247.30199999993 73.751999999971 L254.99399999995 73.751999999971 L265.93799999995 73.841999999999 L292.98599999996 74.045999999996 L299.16599999996 72.719999999975 L305.7 73.223999999982"/>
  </g>
 </g>
 <g>
  <g>
   <path d="M245.29199999998 60.725999999988 L253.254 60.245999999964 L260.44200000001 60.359999999974 L267.402 50.633999999974 L271.13999999995 46.811999999989 L283.23600000002 46.673999999996 L286.67399999995 48.113999999984 L289.41600000002 50.039999999981 L290.92799999995 52.073999999962 L292.75799999994 51.77999999998 L294.54599999994 52.991999999989 L295.96199999995 55.554000000001 L295.18799999994 57.65999999997 L293.48999999996 66.311999999996 L269.04599999995 61.643999999973 L245.10599999994 62.441999999962 L245.29199999998 60.725999999988"/>
  </g>
 </g>
 <g>
  <g>
   <path d="M568.55999999996 294.29999999996 L579.82200000001 294.52799999999 L574.19399999998 311.65199999998 L565.45199999996 353.17199999999 L556.57199999996 368.34599999996 L533.63999999996 362.68799999996 L513.85799999994 358.13399999999 L502.09799999996 377.99999999997 L518.57999999996 390.54599999997 L529.15199999995 395.51399999996 L540.05999999995 399.05999999996 L550.39199999996 403.43399999996 L560.75999999996 391.00199999997 L577.03199999997 400.61399999996 L585.66000000002 404.39399999997 L594.88200000001 408.05399999998 L607.70399999996 415.26599999997 L621.83999999999 418.92599999998 L576.24000000001 463.55999999997 L515.45999999999 422.51999999999 L463.73999999994 374.52599999996 L428.98799999995 347.03399999997 L426.88199999998 321.79199999996 L481.49999999995 293.26799999997 L568.55999999996 294.29999999996"/>
  </g>
 </g>
 <g>
  <g>
   <path d="M489.48000000001 220.02599999999 L533.77199999997 156.60599999998 L546.12 140.81399999999 L560.59799999994 149.16599999997 L575.20199999999 156.46799999999 L554.09999999998 182.92799999999 L580.32600000001 183.33599999998 L550.61999999998 219.77399999999 L526.43999999998 250.15199999999 L504.43199999995 236.82599999999 L493.99199999996 226.49999999997 L489.48000000001 220.02599999999"/>
  </g>
 </g>
 <g>
  <g>
   <path d="M585.04199999996 220.73999999998 L575.33999999998 215.10599999996 L601.98 183.54599999996 L603.21599999995 181.85399999997 L607.38000000001 183.888 L608.81999999995 184.70999999997 L612.48000000001 187.20599999997 L617.35799999997 189.17399999999 L637.67999999999 202.67999999996 L619.51199999999 219.17999999999 L611.94 213.894 L603.17999999995 206.70599999998 L599.93999999995 211.55999999996 L597.89999999998 212.88599999998 L587.83199999999 217.55399999996 L586.73399999995 219.47999999996 L585.04199999996 220.73999999998"/>
  </g>
 </g>
 <g>
  <g>
   <path d="M575.47199999999 156.49199999997 L593.99999999994 164.81999999996 L591.95399999999 169.49399999997 L586.61999999998 176.63399999998 L583.71599999998 178.43999999998 L582.52200000001 181.39199999999 L580.602 183.432 L569.27999999994 182.92799999999 L554.64599999996 182.51399999997 L575.47199999999 156.49199999997"/>
  </g>
 </g>
 <g>
  <g>
   <path d="M275.45399999997 154.01999999999 L287.81399999997 154.22399999999 L288.36599999994 159.92399999996 L286.81199999994 165.20999999996 L284.24399999994 168.48599999996 L288.59999999995 171.324 L290.42399999994 174.98399999997 L290.42399999994 178.43999999998 L288.22799999995 180.594 L284.46 181.30199999996 L283.05599999996 179.58599999999 L281.63399999997 177.22799999997 L278.06399999994 176.01599999996 L274.58399999995 176.424 L271.37999999994 180.68399999999 L272.89199999996 185.96999999998 L275.22599999995 189.03599999996 L298.39199999995 193.91399999996 L299.66999999996 195.76799999997 L299.66999999996 199.40399999996 L297.38399999994 201.25799999997 L280.12799999993 197.57399999997 L265.43399999994 192.702 L260.30399999993 188.83199999996 L260.80799999994 182.62799999998 L264.14999999994 174.77999999997 L263.87399999996 171.528 L260.30399999993 171.11399999997 L263.64599999994 166.44599999999 L271.37999999994 160.33799999998 L276.00599999994 161.34599999999 L275.45399999997 154.01999999999"/>
  </g>
 </g>
 <g>
  <g>
   <path d="M247.30199999993 102.91199999998 L257.92199999998 102.954 L304.38599999999 104.16599999996 L330.70799999996 105.53999999999 L355.06199999995 103.68599999998 L372.47999999997 97.139999999968 L377.35199999995 95.81399999999 L388.57200000001 98.699999999994 L407.88599999993 99.911999999961 L414.79799999996 106.20599999997 L417.22799999997 112.61399999999 L415.764 125.89199999998 L415.07399999995 156.60599999998 L409.584 155.75999999999 L395.62199999995 155.688 L371.63399999997 154.93199999999 L370.98 163.58399999997 L370.76399999995 168.69 L370.21199999998 171.528 L367.26000000002 171.11399999997 L362.75399999997 169.28399999999 L357.34799999997 166.44599999999 L356.20799999995 170.15399999997 L356.11199999994 178.37399999998 L346.092 169.19399999996 L325.08000000001 173.99999999998 L314.77800000002 172.674 L307.18200000001 172.674 L307.04399999993 154.72799999999 L276.78600000002 154.08599999999 L266.34599999994 149.02799999997 L265.31999999997 151.01999999997 L265.06800000001 158.75399999997 L256.07999999994 157.08599999996 L256.86000000002 155.57399999999 L262.63800000001 155.57399999999 L263.64599999994 149.16599999997 L264.28799999994 147.83999999999 L254.538 142.69199999998 L249.13799999999 138.36599999999 L248.69999999999 136.32599999998 L247.30199999993 102.91199999998"/>
  </g>
 </g>
 <g>
  <g>
   <path d="M473.30400000001 131.29199999999 L477.12000000001 126.00599999999 L470.32799999994 123.00599999998 L463.96199999998 120.71399999996 L462.36000000002 120.71399999996 L459.47999999996 121.494 L453.89999999998 128.70599999999 L431.27999999996 121.26599999998 L415.85399999994 121.97399999998 L416.99999999994 115.67999999997 L417.22799999997 111.60599999998 L420.61199999995 111.312 L425.51399999994 111.42599999997 L430.13399999995 110.874 L430.182 102.58799999998 L431.05199999994 102.54599999996 L430.95600000001 106.686 L430.13399999995 112.49999999998 L430.91399999994 114.83399999997 L435.30599999994 115.56599999996 L436.31399999995 111.46799999999 L439.24199999998 88.967999999966 L449.75999999994 92.333999999994 L457.96799999994 97.325999999967 L452.15399999995 106.43399999999 L445.97399999995 114.30599999998 L450.64200000002 116.75999999997 L459.59999999999 119.89199999999 L463.22999999995 114.402 L465.23999999999 111.582 L476.23199999995 110.50799999998 L478.70399999994 110.67 L483.55799999996 113.34599999998 L486.89999999996 113.574 L488.03999999998 115.5 L487.67999999995 117.00599999999 L492.83999999997 121.494 L499.80599999995 124.92599999999 L502.59599999998 127.37999999997 L503.09999999999 129.414 L511.15799999994 132.66599999997 L517.55999999997 127.37999999997 L520.36199999998 129.6 L531.71399999997 131.63399999998 L546.35999999999 140.22 L533.40599999996 157.08599999996 L525.53399999996 153.426 L488.69999999994 138.17999999999 L473.30400000001 131.29199999999"/>
  </g>
 </g>
 <g>
  <g>
   <path d="M348.11999999999 103.54799999999 L345.76799999996 91.559999999987 L338.81399999996 75.467999999987 L336.23999999998 66.515999999993 L336.61199999997 62.147999999979 L334.82999999995 56.123999999969 L328.00799999995 53.495999999996 L322.10399999994 48.50399999998 L316.28999999995 49.625999999961 L317.06999999994 43.217999999982 L319.01999999997 37.313999999967 L337.80599999994 38.13599999998 L342.56399999995 42.005999999972 L352.86599999995 52.283999999986 L360.96599999996 54.293999999985 L366.77999999995 57.569999999984 L364.30799999997 62.855999999982 L367.26000000002 64.385999999999 L369.07199999996 62.237999999965 L372.82199999996 63.155999999992 L372.3 64.18199999996 L372.40799999998 66.011999999986 L375.11399999997 66.611999999964 L375.52199999996 67.637999999974 L380.28599999996 69.767999999968 L380.42399999995 71.597999999994 L381.70199999996 72.809999999961 L383.76599999995 75.378000000001 L385.55999999994 77.801999999977 L384.53999999996 80.045999999982 L385.31999999995 82.379999999972 L386.60399999995 83.909999999989 L388.66199999995 84.737999999987 L392.78399999995 85.03199999997 L398.32199999995 84.029999999984 L399.11999999998 82.289999999986 L401.66399999995 79.241999999965 L402.53399999997 79.241999999965 L404.72999999997 79.745999999972 L422.63999999994 89.315999999982 L424.18199999997 88.811999999976 L425.23799999995 87.983999999977 L426.61199999998 87.689999999995 L428.57999999995 87.983999999977 L429.31199999998 88.811999999976 L429.95999999997 93.983999999963 L430.36199999997 110.874 L417.49799999997 111.19799999999 L414.65999999997 105.588 L411.31799999997 101.71799999996 L408.20999999997 99.797999999993 L404.22599999997 99.179999999976 L398.54999999997 98.879999999966 L390.17399999997 98.357999999962 L383.99399999997 97.026 L379.25999999999 95.51399999998 L374.24399999995 95.723999999962 L367.92599999995 98.057999999995 L356.34599999995 102.83999999999 L348.11999999999 103.54799999999"/>
  </g>
 </g>
 <g>
  <g>
   <path d="M232.70399999996 37.607999999992 L233.75399999995 37.859999999995 L235.44599999994 39.053999999965 L238.37999999995 39.192 L241.21799999995 38.639999999987 L245.74799999994 36.671999999967 L246.61799999996 36.833999999985 L251.058 36.671999999967 L251.47199999998 37.085999999988 L251.65199999995 39.89999999996 L252.06600000001 40.445999999989 L252.79799999996 40.379999999985 L253.30199999996 41.339999999991 L256.13999999996 41.41199999998 L255.77399999995 32.159999999976 L256.68599999995 32.273999999987 L257.03999999999 41.273999999987 L264.79199999994 41.22599999998 L264.83999999999 39.827999999972 L265.14 39.713999999961 L266.20799999995 40.265999999974 L265.84199999994 31.385999999969 L266.898 31.313999999981 L267.26400000001 41.045999999966 L271.24800000001 40.973999999977 L271.24800000001 30.905999999987 L311.34 30.467999999985 L325.08000000001 32.393999999982 L324.94199999994 33.605999999992 L332.99999999997 36.191999999986 L334.506 37.199999999999 L333.95999999993 37.859999999995 L332.58000000001 37.931999999984 L319.12799999995 37.26599999996 L316.97400000002 43.379999999999 L316.37999999998 49.625999999961 L322.10399999994 48.479999999998 L325.71599999994 51.59399999998 L324.34799999999 53.999999999959 L322.926 59.693999999993 L323.65799999994 64.205999999984 L326.45399999996 73.63799999996 L316.79399999996 73.427999999979 L305.07599999996 73.223999999982 L291.52199999999 74.09399999996 L295.13999999998 57.725999999974 L295.96199999995 55.505999999994 L294.35999999998 52.853999999996 L292.98599999996 51.77999999998 L291.01799999998 52.073999999962 L289.86 50.519999999963 L287.26799999998 48.479999999998 L283.14599999999 46.673999999996 L271.51800000001 46.74 L270.87600000002 47.039999999967 L266.34599999994 52.145999999993 L260.51999999999 60.293999999971 L256.50599999997 60.245999999964 L244.74000000001 60.773999999995 L243.36599999998 58.733999999987 L242.26799999994 56.105999999971 L232.70399999996 37.607999999992"/>
  </g>
 </g>
 <g>
  <g>
   <path d="M245.29199999998 62.465999999986 L268.68000000002 61.685999999995 L293.03400000001 66.425999999964 L291.25199999999 74.09399999996 L259.52399999994 73.931999999985 L247.30199999993 73.751999999971 L247.30199999993 65.693999999979 L245.29199999998 62.465999999986"/>
  </g>
 </g>
 <g>
  <g>
   <path d="M579.48000000002 294.29999999996 L633.42599999999 295.14599999996 L632.41799999997 315.90599999998 L634.98599999997 371.08799999999 L632.41799999997 384.54599999999 L626.7 391.84799999997 L619.74000000001 405.55799999997 L617.04 412.37999999997 L616.90200000001 417.16199999996 L612.53999999994 416.56799999997 L608.02200000001 415.15199999996 L602.52599999998 412.60799999999 L595.19999999998 408.05399999998 L585.228 404.39399999997 L573.82799999996 398.85599999997 L561.74399999995 391.43999999997 L557.11799999995 396.28799999997 L554.92199999995 398.23799999999 L550.61999999998 403.68599999996 L529.01399999996 395.69399999998 L518.81999999995 390.54599999997 L501.95999999997 378.29999999998 L513.41999999994 357.83999999997 L549.702 366.30599999999 L556.33799999995 368.52599999997 L565.21799999996 352.31999999996 L567.77999999997 340.926 L569.57999999995 327.30599999998 L579.48000000002 294.29999999996"/>
  </g>
 </g>
 <g>
  <g>
   <path d="M612.29999999995 172.94999999999 L615.71399999994 174.27599999996 L620.33399999996 176.72399999996 L627.59999999994 180.63599999998 L631.91999999995 184.344 L635.69999999996 187.75799999999 L638.59799999997 191.44199999998 L641.87999999996 197.27999999999 L642.03599999999 198.10199999996 L639.23999999997 200.84999999997 L637.67999999999 202.35599999997 L627.47400000001 195.49199999999 L622.14 192.08399999998 L617.31599999999 188.83199999996 L614.03999999999 187.29599999996 L611.04599999996 185.88 L608.11199999995 183.888 L604.19999999993 181.80599999997 L605.45999999999 179.766 L608.52600000001 177.22799999997 L612.29999999995 172.94999999999"/>
  </g>
 </g>
</svg>
