<?xml version="1.0" encoding="utf-8"?><svg xmlns="http://www.w3.org/2000/svg" version="1.1" baseProfile="tiny" width="800" height="600" viewBox="0 0 800 600"><g><g stroke="#000000" stroke-width=".98" fill="#FFFFFF"><path d="m12.38 544.23l.74-.31.69-.13.61.09.5.33-.01.02 1.08 1.17 12.65 2.48 1.12.56 2.03 1.74.59.16 1.52-.01.45.2.18.79-.16.76-.37.48-.44-.05 1.07 1.12 1.03.83 1.23.36 1.7-.27 2.75.18.55 1.34-.35 2.01.08 2.21 1.11 1.97 5.31 6.82.65 1.37.03.5.42.09 1.42.04 1.69.04 4.35-.5.74.07 1.22.4.71.11.58-.24 1.34-1.02.61-.16 1.27.59 3.84 3.26 7.59 4.43 10.34 8.3 1.74.84 2.32.6 6.63.57 1.91 1.01 4.3.44 16.11 1.67 4.24 2.73 2.05-1.02 2.55.06 7.52 1.68 1.66.06 1.51-.44 18.92-10.98 18.01-9.94.03-.01 13.03-7.04 20.15-10.92 9.34-5.05 10.84-5.86 20.17-10.91 20.18-10.93 14.99-8.12 20.5-10.83 9.99-5.28 25.17-13.31 28.83-15 13.02-6.53 13.02-6.52 13.02-6.52 13.02-6.53 13.02-6.52 13.02-6.52 13.01-6.52 13.02-6.51 13.01-6.52 13.03-6.52 13.01-6.52 13.01-6.52 8.44-4.23 4.58-2.3 13.02-6.51 13.02-6.52 13.02-6.53 17.26-8.65 28.91-6.43 3.44-1.86 2.68-3.14 4.23-7.72 0-.02 20.21-32.28 1.01-2.9.27-3.08-1-20.57-.67-19.41-.09-2.73 1.15-7.17 4.92-14.54 1.03-11.48 1.09-3.54.01 0 .01 0 0-.02 5.55-6.82 3.98-4.88 1.86-3.56.64-3.69-.5-16.18-.56-3.87-1.27-3.77-9.1-16.08 0-.02-.02.01-3.01-5.74-.47-2.03-.01-1.97 3.8-29.54.96-3.16 10.39-16.37 0-.02.01 0 0-.01 2.36-2.62 3.47-1.3 7.64-1.02 36.51-6.26 3.23-1.23 3.11-2.14 15.87-13.62 23.53-20.22 12.14-10.43.04-.01 0-.01 7.53-5.74 3.64-2.25.04-.03-.03-1.71-.67-1.31-.89-1.21-.75-1.39-.09-3.33-.23-1.66-.93-.71-1.33-1.5 2.1-6.58-.77-1.5-.8-.34-4.01-2.57-.51-.64-.6-1.15-.51-.63-.73-.18-.78.51-.74.65-.67.26-3.58-1.39-1.6-.21-.13-.5.2-1.18-.15-1.36-1.34-1.29-2.14 1.37-1.7.82-5.91 6.24-8.87 6.67-5.15 2.47-13.29 2.52-49.04 9.26-32.78 1.25-2.54-.55-5.26-1.72-28.09-4.53-22.07 2.62-5.83 1.79-15.74 6.99-5.4 1.26-2.69.13-2.57.41-2.51.77-2.37 1.18-15.58 8.39-8.39 4.51-4.4 1.66-4.42.66-4.23 1.16-11.71 5.64-25.25 7.63-38.09 5.86-23.79 3.66-6.33.21-18.09-4.9-6.15.35-2.59.62-19.14.74-8.28-.86-7.17-3.01-3.41-2.89-12.45-10.56-5.82-2.59-22.38-5.41-7.72-.79-4.03.34-7.89 2.46-11.42 5.84-2.13 1.09-3.28.72-18.87 6.96-19.51 3.34-7.14 2.55-17.33 8.98-4.91-.03-19.14-2.84-2.61.17-7.48 1.56-2.21-.23-1.93-.48-1.95-.13-2.21.81-1.83 1.49-.91 1.1-1.09.26-2.33-1.03-2.21-1.6-.44-1.35 1.02-3.78-.12-2.45-.93-1.51-3.58-2.68-1.82-1.36-2.21-1.04-2.35-.74-2.25-.43-7.43-.38-21.68-6.05-.12-.04-1.1-.12-1.1.06.4 2.87-1.32 2.28-1.92 2.08-1.46 2.32-.52 2.61-.09 2.27-.4 2.31-1.4 2.76-1.6 4.98.09 5.23-.55 5.08-3.52 4.53-.49 1.77.3 1.95 2.23 6.39.62.89.82.59 1.87.67.57.34.57.78.33.81.13.89-.02 1.04-.77 1.76-.66 1.07-.53.02 1.19.95 3.88.33 1.92.61 1.37 1.29.01.02 1.14 1.79.83 1.94.43 1.67.11 2.65-.69.98-8.33 1.28-2.24-.03-8.93-1.12-2.17.28-1.32.37-.43.76-.16.84-.56.67-.99.38-.65 0-.7-.18-3.23-.36-1.62-.44-1.47-.86-1.48-1.43-1.36 1.12 1.69 1.6-.16 1.02-.96.78-.68.89-.22 1.73-.37 17.02.29 3.35-2.5.67-4.64-1.47-2.33.77-.02.02-.98 4.16-1.88.36-2.83-.65-3.78 1.11-2.6 3.42-.71 8.31-1.32 3.48-.27.04-1.98.28-6.85-4.05-3.48-1.32-3.68-.09-1.83-.35-1.36-.96-.27-1.41.35-1.54-.03-1.52-1.48-1.36-2.3.29-2.37.71-2.32.38-1.12-.31-3.07 3.74-.5 2.27-1.19 1.76-2.83.53-5.68-.29 1.56 1.69 1.59 2.58 1.25 2.76.48 2.26.03 2.75-.21.63-4.53 7.14-2.76.74-.64.87.24 1.45 1.04 1.61.27 1.32-.69 2.1-1.78 1.7-2.35 1.21-2.35.69 0 .73 1.61-.73.73 0-.28.67-.25 1.16-.2.58 4.11 1.8.71.61-.11 1.42-.6 1.61-.18 1.32 1.27.55.65-.31 1.82-.55 1.9-.24.88.66.5 1.16 1.17.72 2.42.97 5.68 6.28 1.19.95-.27 1.69.87 7.63.58 2-1.61 3.96 4.47 7.43 1.07 3.16-2.49 2.04-5.54 7.01-.74 1.39 0 5.64.42 1.34.69 1.57.38 1.73-.61 1.78-.94.78-.68.86-.95 1.65.37.85.26.17-.03.07-.6.52 0 .81.71.75.21.82-.21.81-.71.76-.08.55-.7.32 3.79 8.41.64 2.47.46 1.18 2.07 2.92.35.74 0 4.81.25 1.04 1.15 1.74.77 3.14 2.15 3.66.49 2.19 1.5-.05 1.04.24.86.34 2.06 1.38 2.55.61 2.69.06 3.12-.36 2.93.17 5.15.31.51-.14 1.41-.7.72-.15.59.21 1.39.86.72.21 7.1-.33 1.17-.44 1.08-.96.44-1.08.05-2.31.39-.9 2.44-1.41 1.76.95 2.77 4.16 2.37 1.76 2.79.79 2.92-.05 2.85-.76-.47 3.71-.84.55-1.25-.84-1.74-.41-1.74.89-.24 1.41.14 1.74-.53 1.85-2.3 1.49-3.22 1.44-1.98 1.74 1.18 1.82.33.53.32.08.33.02.33-.02.31-.08 2.29-.58 3.44-.13 3.23.22 1.62.47 0 .02.75 1.96 1.17 1.52 1.58 1.1 1.99.72 1.71 1.75.85.46.86-.24 1.88 1.11.64 1.03-.1 1.31-.41 1.93-.32.81-.42.56-.38.61-.1.97.32.94.58.91 2.55 2.96 1.25 1.14.84.3.86-.05.77.15.61.92-.24 1.53-1.14 1.29-.88 1.53.56 2.21.76 1.69 2.85 2.35.63 1.14.06.12-3.32 3.04-2.72 3.8-5.27 3.75-2.3 2.41-.68 1.67-.23 1.38-.65 1.09-1.92.8-1.62.07-2.53-.79-1.35-.09-2.48 1.05-3.92 4.14-4.68 3.41-1.85 1.9-1.62 2.11-2.52 4.25.21.43.75 1.12.74.72 3.47 2.25 4.62.66 2.04 1.04.23 2.42-1.43 1.56-2.26.3-4.44-.88-6.05-2.48-2.04-.33-1.79.56-1.64 1.12-1.9.95-2.46.05-.95-.51-1.49-1.57-.78-.37-4.22 2.15-2.05.74-2.19.48-1.88.65-1.17 1.27-1.58 2.51-3.9 2.78-1.62 2.02-.71 1.34-2.16 1.65-.87 1.05-.17.99.34 2.13-.32 1.13-.56.46-1.53.49-.48.4-.45 2.51 1.56.82 2.6.4 2.75 1.29 1.68.39 2.17.9 1.97 1.23 1.03 1.33-.37 2.18-1.82 1.78-2.42 1.34-2.24.86-2.76-.03-2.77.75-1.34 1.57 1.59 2.39-1.87 3.75-3.65 2.58-2.17 1.08-2.94 1.48-2.82 1.41.16.63-.65.73-.18 1.92-.37.65-.28 1.57-1.93 1.19-.91.83-2.58.99 4.5 2.58-3.94 4.69.82.92 3.3 1.93.48 5.5 2.65 1.38.38 3.4-1.29 2.31-1.29 1.74 0 1.75 4.4 1.55-.36 1.56 1.55 11.21.66 1.47 2.76 3.86-1.65 2.66-.84.19-2.02 2.93-1.38 3.51.45 1.47-.9 3.02-5.89 5.88-3.13 3.96z" /></g></g></svg>