<?xml version="1.0" encoding="UTF-8"?>
<svg version="1.1" xmlns="http://www.w3.org/2000/svg" width="1080" height="1080">
<path d="M0 0 C1.72528648 -0.00920988 3.45055758 -0.02183637 5.17579651 -0.03761292 C9.84968121 -0.06975432 14.52212032 -0.05159176 19.19597554 -0.02238536 C24.09124159 0.00162822 28.98640562 -0.01426612 33.88169861 -0.02406311 C42.10072571 -0.03403562 50.31917236 -0.0110047 58.53808594 0.03125 C68.03663979 0.07964397 77.53402682 0.07431536 87.03261763 0.04055601 C96.17640918 0.0094273 105.31976598 0.01779898 114.4635601 0.04363823 C118.35230413 0.05384577 122.24065624 0.04995839 126.12938118 0.03465462 C130.70913384 0.01831312 135.2874896 0.03648792 139.86704063 0.08118629 C141.54638912 0.09202893 143.22586292 0.09100609 144.90518951 0.07718277 C157.59006356 -0.01634471 157.59006356 -0.01634471 161.46941948 2.56860161 C163.02018714 4.3303384 164.12293309 5.91456377 165.14428711 8.01928711 C165.47428711 8.67928711 165.80428711 9.33928711 166.14428711 10.01928711 C168.16553323 21.42216615 163.63207508 29.83213881 158.72827148 39.77856445 C156.9276347 43.46254298 155.1798292 47.16905244 153.44116211 50.88256836 C153.11522064 51.57841537 152.78927917 52.27426239 152.45346069 52.99119568 C151.77822662 54.43275512 151.10304636 55.87433978 150.42791748 57.31594849 C148.69163469 61.01709645 146.94450162 64.71311765 145.19897461 68.40991211 C141.61009711 76.01637673 138.05535582 83.63810471 134.51928711 91.26928711 C128.62896266 103.98003505 122.70983918 116.67709438 116.78138733 129.37008667 C114.76676299 133.68415375 112.75554458 137.99979684 110.74584961 142.31616211 C104.05887278 156.67414125 97.32427408 171.00879234 90.55285645 185.32714844 C85.41483011 196.19283901 80.30696322 207.07194231 75.23266602 217.9675293 C70.56154418 227.99662375 65.85989436 238.01103657 61.14428711 248.01928711 C55.83610666 259.28566167 50.55025639 270.56205767 45.290802 281.85125732 C40.24384983 292.68280007 35.1579239 303.49570427 30.06344604 314.30496216 C25.41288921 324.17438538 20.79443812 334.05797727 16.20678711 343.95678711 C15.41292603 345.66451294 15.41292603 345.66451294 14.60302734 347.40673828 C12.22159084 352.52966135 9.85130728 357.65668998 7.51538086 362.80053711 C6.72518874 364.51936641 5.93483606 366.2381219 5.14428711 367.95678711 C4.8066333 368.71403076 4.46897949 369.47127441 4.12109375 370.25146484 C2.07831704 374.65918575 -0.0741006 377.8255216 -3.85571289 381.01928711 C-7.08825865 382.09680236 -9.70398902 382.32625584 -13.10571289 382.45678711 C-14.20399414 382.51737305 -15.30227539 382.57795898 -16.43383789 382.64038086 C-21.74885001 381.67566976 -24.98170478 378.66085708 -28.07348633 374.30273438 C-29.17564577 372.43096359 -30.15249815 370.53355213 -31.10571289 368.58178711 C-31.48010498 367.84573242 -31.85449707 367.10967773 -32.24023438 366.35131836 C-33.46744262 363.91755262 -34.66558999 361.47138759 -35.85571289 359.01928711 C-36.25741699 358.19283691 -36.65912109 357.36638672 -37.07299805 356.51489258 C-39.30653373 351.89915341 -41.51200496 347.27051753 -43.70727539 342.63647461 C-47.35402129 334.9488038 -51.07486151 327.29748681 -54.79321289 319.64428711 C-59.98105506 308.96089438 -65.14531867 298.26682509 -70.27514648 287.55541992 C-74.80720229 278.10106066 -79.38599603 268.66959331 -83.96511841 259.23797607 C-88.10049233 250.71900155 -92.21955824 242.19300348 -96.29321289 233.64428711 C-100.8719689 224.03835827 -105.51474643 214.46416837 -110.16821289 204.89428711 C-116.0411811 192.81649332 -121.90619425 180.73508543 -127.7331543 168.63500977 C-130.39160486 163.11550867 -133.05670683 157.59979734 -135.74906921 152.09677124 C-137.03975244 149.45770493 -138.32635623 146.81665903 -139.61270142 144.17547607 C-140.2226399 142.92599335 -140.83453031 141.67746115 -141.44857788 140.42999268 C-144.7528259 133.71590394 -147.62206383 127.16098779 -149.85571289 120.01928711 C-150.18571289 119.68928711 -150.51571289 119.35928711 -150.85571289 119.01928711 C-151.18571289 120.19491211 -151.51571289 121.37053711 -151.85571289 122.58178711 C-154.06036075 128.52062322 -158.60178187 131.77784536 -163.67602539 135.27319336 C-166.84858192 136.35914013 -169.48155668 135.5423931 -172.79321289 135.08178711 C-185.95898989 134.3468647 -197.44497311 143.81729646 -208.06713867 150.61157227 C-211.70164283 152.93281807 -215.376224 155.18150101 -219.07055664 157.40600586 C-219.65481918 157.75794006 -220.23908173 158.10987427 -220.84104919 158.47247314 C-222.01264398 159.17794826 -223.18433032 159.88327134 -224.35610962 160.58843994 C-227.27132519 162.34770855 -230.17623713 164.1238225 -233.08227539 165.89819336 C-239.52677652 169.82906618 -246.0013257 173.70876803 -252.48071289 177.58178711 C-280.64524977 192.4061531 -280.64524977 192.4061531 -305.85571289 211.01928711 C-305.15414062 211.4452417 -304.45256836 211.87119629 -303.72973633 212.31005859 C-284.60506185 223.9214681 -265.48038737 235.5328776 -246.35571289 247.14428711 C-245.48959129 247.67014153 -245.48959129 247.67014153 -244.60597229 248.20661926 C-243.43842871 248.91549191 -242.27089739 249.62438476 -241.1033783 250.33329773 C-238.20022821 252.09604468 -235.29687107 253.85844871 -232.39306641 255.62011719 C-226.98188928 258.9034387 -221.5727739 262.19001375 -216.17074585 265.4883728 C-213.65140673 267.02634543 -211.13092043 268.56243252 -208.61035156 270.09838867 C-207.42260615 270.82287667 -206.23540766 271.54826228 -205.04882812 272.2746582 C-201.33311106 274.54915014 -197.59998346 276.7921615 -193.85571289 279.01928711 C-192.39838745 279.90982788 -192.39838745 279.90982788 -190.91162109 280.81835938 C-185.12019023 284.21343977 -180.86497881 285.78995637 -174.16821289 285.58178711 C-167.54987322 285.69751525 -162.65788409 286.1576831 -157.85571289 291.01928711 C-152.31577461 297.30687193 -150.66319721 301.86220501 -150.60571289 310.26928711 C-150.57477539 311.37723633 -150.57477539 311.37723633 -150.54321289 312.50756836 C-150.49964545 318.68325274 -151.82302959 323.397169 -155.68774414 328.38256836 C-156.34129883 329.02581055 -156.99485352 329.66905273 -157.66821289 330.33178711 C-158.63694336 331.31598633 -158.63694336 331.31598633 -159.62524414 332.32006836 C-164.749225 336.22362646 -170.17794222 336.35893021 -176.35571289 336.33178711 C-177.08918945 336.34790039 -177.82266602 336.36401367 -178.57836914 336.38061523 C-184.98704724 336.3863475 -189.7324891 334.50371116 -194.48071289 330.08178711 C-198.24412512 326.23656157 -199.27122977 322.16986721 -200.34790039 316.98413086 C-202.68708707 312.38453841 -206.50011768 310.59692085 -210.85571289 308.01928711 C-211.81541992 307.42801025 -212.77512695 306.8367334 -213.76391602 306.22753906 C-217.05426884 304.20205116 -220.3598337 302.20259724 -223.66821289 300.20678711 C-224.90190819 299.46034529 -226.13546652 298.71367706 -227.36889648 297.96679688 C-229.92562913 296.41891408 -232.48293901 294.8719924 -235.04077148 293.32592773 C-241.02433079 289.70878322 -247.00320529 286.08392161 -252.98071289 282.45678711 C-253.84672119 281.93142365 -253.84672119 281.93142365 -254.73022461 281.39544678 C-264.3155861 275.57905744 -273.8711896 269.71533035 -283.41430664 263.82983398 C-289.47479501 260.09376463 -295.54630002 256.37704134 -301.63330078 252.68432617 C-310.69004924 247.18955192 -319.72673136 241.66264706 -328.73071289 236.08178711 C-329.71120605 235.47906982 -330.69169922 234.87635254 -331.7019043 234.25537109 C-351.10322701 222.18094804 -351.10322701 222.18094804 -352.30737305 217.12158203 C-352.40237412 214.81528502 -352.46226148 212.51505893 -352.48071289 210.20678711 C-352.52583008 209.41208008 -352.57094727 208.61737305 -352.61743164 207.79858398 C-352.65605521 204.46316319 -352.61230001 202.01645193 -350.55200195 199.30102539 C-348.73816 197.69143555 -346.8824968 196.35021975 -344.85571289 195.01928711 C-344.20038574 194.57093506 -343.54505859 194.12258301 -342.86987305 193.66064453 C-340.72458993 192.234126 -338.54843521 190.87167914 -336.35571289 189.51928711 C-335.53385498 189.00648193 -334.71199707 188.49367676 -333.86523438 187.96533203 C-324.62359103 182.21645697 -315.31919623 176.56900788 -306.01000977 170.93041992 C-302.72286674 168.93879797 -299.43750546 166.94426486 -296.15258789 164.94897461 C-294.9973985 164.24731007 -293.84220642 163.54564995 -292.68701172 162.84399414 C-291.81878281 162.31663666 -291.81878281 162.31663666 -290.93301392 161.77862549 C-283.80105203 157.44708309 -276.66816088 153.1170746 -269.53189087 148.79263306 C-266.5978288 147.01457187 -263.66419014 145.23581296 -260.73071289 143.45678711 C-260.15409912 143.10714905 -259.57748535 142.75751099 -258.98339844 142.39727783 C-250.35467904 137.16341985 -241.7557448 131.88289555 -233.16821289 126.58178711 C-225.75862947 122.01393783 -218.34138886 117.46164888 -210.85571289 113.01928711 C-210.16131104 112.60364502 -209.46690918 112.18800293 -208.75146484 111.75976562 C-204.0940309 109.01928711 -204.0940309 109.01928711 -201.85571289 109.01928711 C-201.68555664 108.29483398 -201.51540039 107.57038086 -201.34008789 106.82397461 C-199.15349982 98.10088388 -196.40709056 92.34967135 -188.85571289 87.01928711 C-184.18295643 85.25598278 -179.71823434 84.72451631 -174.77368164 84.46069336 C-172.45204787 84.1574391 -172.45204787 84.1574391 -170.85571289 81.01928711 C-171.69482366 78.67910041 -172.59962346 76.65301906 -173.73071289 74.45678711 C-174.38875609 73.11652021 -175.04492313 71.77533095 -175.69946289 70.43334961 C-176.05008789 69.72210938 -176.40071289 69.01086914 -176.76196289 68.27807617 C-178.67133812 64.33487537 -180.45052413 60.33456153 -182.23071289 56.33178711 C-182.57602051 55.56600342 -182.92132813 54.80021973 -183.27709961 54.01123047 C-183.59952637 53.28814697 -183.92195312 52.56506348 -184.25415039 51.82006836 C-184.5395166 51.18238525 -184.82488281 50.54470215 -185.11889648 49.88769531 C-187.56189487 43.69277595 -188.18413233 36.20749377 -185.60571289 30.01928711 C-182.46779731 26.43309788 -180.8203249 25.14285707 -175.92211914 24.51538086 C-174.42111466 24.47967414 -172.91963709 24.46063363 -171.41821289 24.45678711 C-170.66733398 24.42004883 -169.91645508 24.38331055 -169.14282227 24.34545898 C-165.08480471 24.31333747 -163.38363615 24.56442466 -160.23071289 27.28100586 C-156.72072666 32.31359223 -154.05746442 37.93268902 -151.29321289 43.39428711 C-150.67547922 44.6025567 -150.05722544 45.81056052 -149.43847656 47.01831055 C-147.86641492 50.09291752 -146.30469055 53.17263104 -144.74743652 56.25476074 C-143.90447939 57.92278885 -143.05936141 59.58972444 -142.21411133 61.2565918 C-136.54706941 72.44463622 -131.01910079 83.69256235 -125.64111328 95.0222168 C-119.65952528 107.59226622 -113.5084275 120.08048317 -107.37939453 132.57910156 C-93.21898674 161.47741835 -93.21898674 161.47741835 -91.41821289 167.41772461 C-89.38298288 174.02605478 -86.04367529 180.16261332 -82.98995972 186.34695435 C-81.84237389 188.67130427 -80.70171628 190.99893569 -79.56298828 193.32763672 C-78.04290798 196.43562401 -76.52080651 199.54260491 -74.99682617 202.64868164 C-72.07166808 208.61488279 -69.17341614 214.59373903 -66.29321289 220.58178711 C-65.83495117 221.52554199 -65.37668945 222.46929688 -64.90454102 223.44165039 C-64.49526367 224.29355957 -64.08598633 225.14546875 -63.66430664 226.02319336 C-63.31166748 226.75352783 -62.95902832 227.4838623 -62.59570312 228.23632812 C-61.85571289 230.01928711 -61.85571289 230.01928711 -61.85571289 232.01928711 C-61.19571289 232.01928711 -60.53571289 232.01928711 -59.85571289 232.01928711 C-59.60241211 231.19807373 -59.34911133 230.37686035 -59.08813477 229.53076172 C-57.67331477 225.49958976 -55.9499291 221.69999245 -54.13696289 217.83569336 C-53.76723862 217.04068924 -53.39751434 216.24568512 -53.0165863 215.42658997 C-52.21754715 213.70941059 -51.41703498 211.99291602 -50.61520386 210.27703857 C-49.33387443 207.53505383 -48.05631032 204.79134352 -46.77978516 202.04711914 C-45.45345494 199.19589992 -44.12690911 196.34478355 -42.79920959 193.49420166 C-38.44160865 184.13781497 -34.114398 174.76753493 -29.79321289 165.39428711 C-28.31677488 162.19240678 -26.84018211 158.99059784 -25.36352539 155.78881836 C-24.81463402 154.59852524 -24.81463402 154.59852524 -24.25465393 153.38418579 C-21.90812431 148.29688007 -19.55736799 143.21154692 -17.20378113 138.12750244 C-15.58101415 134.62193792 -13.95944215 131.11582117 -12.33792114 127.60968018 C-11.57440822 125.95962853 -10.81033456 124.3098362 -10.04562378 122.66033936 C-9.68574371 121.88402161 -9.32586365 121.10770386 -8.95507812 120.30786133 C-8.60214188 119.54744537 -8.24920563 118.78702942 -7.88557434 118.00357056 C-7.19704918 116.50854672 -6.5157435 115.01017455 -5.84208679 113.50839233 C-4.20991404 109.87494924 -2.51043061 106.3430203 -0.57202148 102.86206055 C2.25404566 97.59255986 4.5386047 93.32384132 3.48681641 87.17675781 C2.12809926 83.26800891 0.17907318 79.73389309 -1.85571289 76.14428711 C-2.51094413 74.88802158 -3.16072965 73.62890012 -3.80493164 72.36694336 C-5.42807807 69.21642328 -7.12990671 66.11492224 -8.85571289 63.01928711 C-9.18571289 62.35928711 -9.51571289 61.69928711 -9.85571289 61.01928711 C-17.20188316 74.48450214 -23.76448774 88.24495933 -30.16261292 102.18112183 C-34.33503495 111.25629752 -38.61346728 120.28216297 -42.88647461 129.31030273 C-46.19199709 136.30304983 -49.45420579 143.31032311 -52.62133789 150.36694336 C-53.50301609 152.31767576 -54.38558112 154.26800483 -55.26831055 156.21826172 C-56.08800751 158.04238619 -56.89196654 159.87355679 -57.69555664 161.70483398 C-58.18668945 162.78958008 -58.67782227 163.87432617 -59.18383789 164.99194336 C-59.60568359 165.94335205 -60.0275293 166.89476074 -60.4621582 167.875 C-61.85571289 170.01928711 -61.85571289 170.01928711 -64.02270508 170.83349609 C-64.62759766 170.89480713 -65.23249023 170.95611816 -65.85571289 171.01928711 C-68.52237956 165.68595378 -71.18904622 160.35262044 -73.85571289 155.01928711 C-74.22583496 154.34091797 -74.59595703 153.66254883 -74.97729492 152.96362305 C-75.85571289 151.01928711 -75.85571289 151.01928711 -75.85571289 148.01928711 C-76.84571289 147.68928711 -77.83571289 147.35928711 -78.85571289 147.01928711 C-81.54499167 141.69963973 -81.83179365 136.84323566 -80.85571289 131.01928711 C-78.76355397 124.67275598 -75.65111393 118.70133255 -72.73071289 112.70678711 C-71.90157308 110.96517799 -71.07452984 109.2225693 -70.24951172 107.47900391 C-68.58602726 103.97016459 -66.91202007 100.46668861 -65.22827148 96.9675293 C-62.22639037 90.72175028 -59.30547436 84.43923522 -56.3894043 78.15307617 C-54.98443421 75.12910709 -53.56980058 72.10968136 -52.15649414 69.08959961 C-49.37937134 63.14834427 -46.62152968 57.19835246 -43.86914062 51.24560547 C-41.73562874 46.63746141 -39.59064885 42.0347128 -37.44360352 37.43286133 C-36.36970988 35.12425418 -35.30083209 32.81330824 -34.23657227 30.50024414 C-32.66371818 27.08399366 -31.07395803 23.67606612 -29.48071289 20.26928711 C-29.01713379 19.25181396 -28.55355469 18.23434082 -28.07592773 17.18603516 C-27.62427246 16.22866455 -27.17261719 15.27129395 -26.70727539 14.28491211 C-26.32394043 13.45765625 -25.94060547 12.63040039 -25.5456543 11.77807617 C-24.7091333 10.41247559 -24.7091333 10.41247559 -23.85571289 9.01928711 C-23.49149199 8.36470614 -23.1272711 7.71012518 -22.75201321 7.03570843 C-17.1159497 -1.23348353 -9.00908217 -0.10360085 0 0 Z M10.14428711 31.01928711 C11.71860009 36.33272628 14.0585995 41.05747868 16.57397461 45.96850586 C17.46079375 47.72171029 18.34750919 49.47496718 19.23413086 51.22827148 C20.62314103 53.96299229 22.01413361 56.6966804 23.4074707 59.42919922 C38.92430959 89.90299104 38.92430959 89.90299104 35.37133789 101.55395508 C34.26237316 104.25656644 33.01836731 106.84651693 31.70678711 109.45678711 C31.2245166 110.46193359 30.74224609 111.46708008 30.24536133 112.50268555 C29.16236508 114.75873172 28.07071226 117.01063618 26.97192383 119.2590332 C24.97289536 123.35578239 23.02699927 127.47696806 21.08569336 131.60131836 C20.7354007 132.3453743 20.38510803 133.08943024 20.02420044 133.85603333 C19.30425407 135.38549752 18.58439618 136.91500337 17.86462402 138.44454956 C16.39662166 141.56023037 14.92273688 144.67311324 13.44900513 147.78608704 C8.34637505 158.56666805 3.31544745 169.37939188 -1.69555664 180.20288086 C-4.12613148 185.4518641 -6.5706961 190.69414922 -9.02201843 195.93347168 C-14.96445005 208.63465826 -20.87303868 221.35112648 -26.73669434 234.08889771 C-27.47005778 235.68168519 -28.20400477 237.27420416 -28.93859863 238.86642456 C-30.95171337 243.23129309 -32.94828284 247.60307555 -34.92700195 251.98364258 C-35.8421284 253.98951122 -36.78081966 255.98299517 -37.72290039 257.97631836 C-38.2887516 259.20904864 -38.85389498 260.44210416 -39.41821289 261.67553711 C-39.91450195 262.73579102 -40.41079102 263.79604492 -40.92211914 264.88842773 C-43.36265296 273.07289576 -38.71243609 280.08322948 -35.14086914 287.26147461 C-34.56993027 288.42558868 -33.99899139 289.58970276 -33.41075134 290.78909302 C-32.20720307 293.2412954 -30.99705838 295.69008579 -29.78173828 298.13647461 C-28.22283178 301.27524479 -26.67822311 304.42079322 -25.13810062 307.56881523 C-23.66629931 310.57372389 -22.18461639 313.57371042 -20.70336914 316.57397461 C-19.87048119 318.27225906 -19.87048119 318.27225906 -19.02076721 320.00485229 C-18.50360641 321.04328278 -17.98644562 322.08171326 -17.45361328 323.15161133 C-16.9991835 324.06981659 -16.54475372 324.98802185 -16.07655334 325.93405151 C-15.02762451 328.16079644 -15.02762451 328.16079644 -12.85571289 329.01928711 C-2.26553166 306.48425187 -2.26553166 306.48425187 8.20678711 283.89428711 C17.77339249 263.12062824 27.48065466 242.41354819 37.22906494 221.72473145 C42.84053641 209.813586 48.40109279 197.87971691 53.93725586 185.93334961 C57.30636621 178.6645277 60.69238216 171.40366064 64.08178711 164.14428711 C64.37215851 163.52229431 64.66252991 162.90030151 64.96170044 162.25946045 C67.31719459 157.21392158 69.67340405 152.16871686 72.02966309 147.12353516 C74.08904374 142.71394419 76.14813758 138.30421946 78.20678711 133.89428711 C78.4970578 133.27249573 78.78732849 132.65070435 79.08639526 132.0100708 C83.82147126 121.86576012 88.53898398 111.7133707 93.25 101.55786133 C96.91059676 93.66932241 100.5830993 85.78643136 104.26287842 77.90682983 C106.29748201 73.54971235 108.3306824 69.19193985 110.36401367 64.83422852 C111.58425345 62.2191031 112.80504821 59.60423755 114.02612305 56.98950195 C115.56652797 53.69046725 117.10488393 50.39048387 118.6418457 47.08984375 C119.22384546 45.84082757 119.80652095 44.59212602 120.38989258 43.34375 C121.19260399 41.6257433 121.99273505 39.90653167 122.79272461 38.18725586 C123.24824707 37.21038818 123.70376953 36.23352051 124.1730957 35.22705078 C125.21139721 33.26871814 125.21139721 33.26871814 125.14428711 32.01928711 C96.22510706 31.3158122 67.32118826 30.92160158 38.39428711 30.95678711 C37.68545757 30.95764313 36.97662804 30.95849915 36.24631882 30.9593811 C27.54561735 30.97067775 18.84494973 30.99061261 10.14428711 31.01928711 Z " fill="#2736D5" transform="translate(524.855712890625,347.980712890625)"/>
<path d="M0 0 C6.15555394 4.21562179 9.07896418 8.54523344 11.01953125 15.82421875 C13.07400606 21.24585268 17.05923452 23.19966564 21.9375 25.9375 C23.85694624 27.06871284 25.77620767 28.2002393 27.6953125 29.33203125 C28.72043945 29.92580566 29.74556641 30.51958008 30.80175781 31.13134766 C35.77117401 34.03485236 40.66736717 37.0564253 45.57498169 40.06277466 C56.99774958 47.04604123 68.50885051 53.88031557 80.02893066 60.70132446 C92.99078303 68.3776874 105.87860241 76.17043163 118.73974609 84.01416016 C121.94459351 85.96625158 125.15325131 87.91191345 128.36328125 89.85546875 C133.91892929 93.22064473 139.46383201 96.60288118 145 100 C145.75104004 100.45906738 146.50208008 100.91813477 147.27587891 101.39111328 C149.25308098 102.60459314 151.22182615 103.83045972 153.1875 105.0625 C154.23292969 105.71347656 155.27835938 106.36445312 156.35546875 107.03515625 C160.5026954 110.11647827 162.68761064 112.3617721 163.671875 117.5234375 C163.87201963 127.3905678 163.87201963 127.3905678 161.8359375 131.1484375 C159.70717502 133.1411147 157.51434718 134.51316682 155 136 C153.75499515 136.78536344 152.51164477 137.57335288 151.26953125 138.36328125 C147.41796971 140.78069357 143.52076794 143.11563166 139.61279297 145.44042969 C135.05713165 148.1596938 130.5302968 150.92626136 126 153.6875 C125.04085693 154.27088135 124.08171387 154.8542627 123.09350586 155.45532227 C114.60793452 160.61896585 106.14960587 165.82636147 97.69335938 171.0378418 C90.64232318 175.38084857 83.57748089 179.7002401 76.5 184 C59.60376161 194.26997446 42.71432287 204.55556328 26.04785156 215.19580078 C24.99742676 215.86458252 24.99742676 215.86458252 23.92578125 216.546875 C23.26674805 216.97000977 22.60771484 217.39314453 21.92871094 217.82910156 C20 219 20 219 18.03222656 219.97558594 C14.63125297 221.66631511 13.12027966 222.77286726 11.3203125 226.171875 C10.92585937 227.35265625 10.53140625 228.5334375 10.125 229.75 C7.60043445 236.574757 4.09131991 240.9739276 -2 245 C-5.62237505 246.20745835 -8.9770595 246.22246029 -12.75 246.25 C-13.78640625 246.2809375 -13.78640625 246.2809375 -14.84375 246.3125 C-20.89604231 246.35800596 -25.61902686 244.99529485 -30.36328125 241.01953125 C-36.81130171 233.7186664 -38.5079656 228.0502759 -38.2421875 218.37890625 C-37.43697227 210.4696147 -32.27214416 204.54822475 -26.36328125 199.640625 C-22.38988674 197.1762275 -19.17611739 196.95706961 -14.54272461 197.09326172 C-1.85931672 197.28447626 6.65037427 190.89397552 16.89941406 184.04541016 C22.11943106 180.60184304 27.47291297 177.37866688 32.8125 174.125 C35.00990902 172.77342618 37.20652015 171.42055429 39.40234375 170.06640625 C40.49401855 169.39367676 41.58569336 168.72094727 42.71044922 168.02783203 C44.88409532 166.68789552 47.05760054 165.34773042 49.23095703 164.00732422 C52.44519978 162.02500417 55.65998174 160.04356201 58.875 158.0625 C59.93630127 157.40813965 60.99760254 156.7537793 62.09106445 156.07958984 C67.7875589 152.57280198 73.4967464 149.08868912 79.2265625 145.63671875 C92.35837918 137.72075011 105.3540975 129.68151243 118 121 C114.59916527 118.17125746 111.16287511 115.79433483 107.34375 113.56640625 C106.24998047 112.92445313 105.15621094 112.2825 104.02929688 111.62109375 C103.45429443 111.28577637 102.87929199 110.95045898 102.28686523 110.60498047 C99.22748114 108.82009591 96.17603985 107.02175684 93.125 105.22265625 C92.20624084 104.68114426 92.20624084 104.68114426 91.2689209 104.12869263 C85.96486956 100.99495656 80.7230446 97.76691569 75.5 94.5 C67.67218341 89.61074926 59.76366898 84.87331346 51.8125 80.1875 C40.46079299 73.49535371 29.21452808 66.65095476 18.0078125 59.71875 C17.03618164 59.11804688 16.06455078 58.51734375 15.06347656 57.8984375 C12.85964964 56.53272518 10.65879538 55.16275593 8.45996094 53.7890625 C7.28323418 53.05724173 6.10647708 52.32546975 4.9296875 51.59375 C3.86733887 50.93052734 2.80499023 50.26730469 1.71044922 49.58398438 C-1.63639223 47.62809288 -4.20748798 46.88468158 -8.01953125 46.7890625 C-9.18258789 46.74652344 -9.18258789 46.74652344 -10.36914062 46.703125 C-11.98610762 46.65142342 -13.60332676 46.60704124 -15.22070312 46.5703125 C-23.11177386 46.25701937 -28.08106583 43.61175694 -33.453125 37.859375 C-39.32424092 30.80217505 -38.68337435 22.8155291 -38 14 C-36.88159308 7.69525511 -31.95180138 2.77238809 -27 -1 C-18.70152054 -4.50958886 -7.91132876 -4.64247204 0 0 Z " fill="#4369F7" transform="translate(743,437)"/>
<path d="M0 0 C4.53959675 3.72677021 6.55288012 8.68049495 9.03515625 13.86328125 C9.51391708 14.84628708 9.99267792 15.82929291 10.48594666 16.84208679 C12.01923638 19.99518743 13.54094534 23.15372259 15.0625 26.3125 C16.0585019 28.36429308 17.0552401 30.41572891 18.05273438 32.46679688 C23.95759942 44.62517976 29.79274947 56.81696507 35.61743164 69.01391602 C37.87585925 73.74269983 40.14655253 78.46547703 42.42211914 83.18603516 C47.85953457 94.47210793 53.22322572 105.79225238 58.5625 117.125 C58.91210785 117.86610016 59.2617157 118.60720032 59.62191772 119.37075806 C60.62560651 121.49913936 61.62754025 123.62833755 62.62890625 125.7578125 C62.92529999 126.38601395 63.22169373 127.01421539 63.52706909 127.66145325 C67.92322129 137.02737029 70.57744824 144.39670134 69 155 C67.75723132 157.5727492 66.78583737 158.6322457 64.3984375 160.171875 C59.36576567 161.90954019 54.18183433 162.13809613 49 161 C43.64584296 157.29310331 41.20562592 153.37647549 38.42578125 147.5703125 C37.81734123 146.34274483 37.81734123 146.34274483 37.1966095 145.09037781 C35.88814487 142.4417683 34.60010643 139.78380312 33.3125 137.125 C32.41045915 135.2881068 31.50729608 133.45176427 30.60302734 131.6159668 C28.04925219 126.41999392 25.5206123 121.2121253 23 116 C22.40837209 114.77913111 21.81673876 113.55826484 21.22509766 112.33740234 C18.57735432 106.86018223 15.96451062 101.3671015 13.36328125 95.86767578 C10.93971845 90.76968712 8.47946228 85.68938466 6.0222168 80.60757446 C5.13344618 78.76748675 4.24704947 76.92627397 3.36132812 75.0847168 C0.65861942 69.46994319 -2.05809174 63.8638626 -4.83981323 58.28771973 C-5.76750351 56.42602406 -6.68954991 54.56164092 -7.60986328 52.69628906 C-8.75848493 50.3723558 -9.91778214 48.05365844 -11.08935547 45.74121094 C-16.08500814 35.58093268 -16.08500814 35.58093268 -15 30 C-13.47621363 25.86433091 -11.65117217 21.91157872 -9.75 17.9375 C-9.01330078 16.34325195 -9.01330078 16.34325195 -8.26171875 14.71679688 C-5.83286576 9.53200537 -3.37240516 4.63304232 0 0 Z " fill="#3754E7" transform="translate(623,564)"/>
<path d="M0 0 C0.99 0.495 0.99 0.495 2 1 C-5.51919115 6.17484563 -13.05988533 11.16184497 -21.0625 15.5625 C-27.35707998 19.02573416 -33.40968474 22.73999657 -39.41796875 26.67578125 C-42.6486838 28.78897039 -45.92835541 30.81524284 -49.21777344 32.83544922 C-61.91935485 40.39854443 -61.91935485 40.39854443 -72 51 C-72.4375 48.875 -72.4375 48.875 -72 46 C-67.66482209 41.24068349 -61.93400591 37.85154717 -56.5 34.5 C-55.68176758 33.98937012 -54.86353516 33.47874023 -54.02050781 32.95263672 C-45.70973681 27.78221906 -37.34740586 22.69485217 -28.97265625 17.62890625 C-24.79707219 15.10053915 -20.64172203 12.54202308 -16.49609375 9.96484375 C-15.4400293 9.31177246 -14.38396484 8.65870117 -13.29589844 7.98583984 C-11.25487205 6.72294274 -9.21762053 5.45392035 -7.18457031 4.17822266 C-6.2715918 3.61538574 -5.35861328 3.05254883 -4.41796875 2.47265625 C-3.61125732 1.97000244 -2.8045459 1.46734863 -1.97338867 0.94946289 C-0.99656128 0.47947876 -0.99656128 0.47947876 0 0 Z " fill="#1518BB" transform="translate(245,503)"/>
<path d="M0 0 C1.17628267 1.764424 2.35131947 3.52968167 3.5234375 5.296875 C7.04206514 9.13739602 11.19887731 11.55468946 15.625 14.25 C16.49640625 14.79140625 17.3678125 15.3328125 18.265625 15.890625 C22.55739138 18.5789749 22.55739138 18.5789749 27 21 C27 21.66 27 22.32 27 23 C27.721875 23.28875 28.44375 23.5775 29.1875 23.875 C31.79166667 24.91666667 34.39583333 25.95833333 37 27 C37 27.66 37 28.32 37 29 C39.475 29.99 39.475 29.99 42 31 C41.67 31.66 41.34 32.32 41 33 C37.49487141 30.87394474 33.99374065 28.74145853 30.49584961 26.60351562 C29.31100093 25.8804812 28.12516246 25.1590657 26.93823242 24.43945312 C5.87442377 11.66377588 5.87442377 11.66377588 0 5 C-0.25 2.25 -0.25 2.25 0 0 Z " fill="#1416BB" transform="translate(173,562)"/>
<path d="M0 0 C-1.13296676 3.39890029 -1.54244415 3.61392206 -4.5 5.3046875 C-5.21873291 5.72121582 -5.93746582 6.13774414 -6.67797852 6.56689453 C-7.44424561 6.99856934 -8.2105127 7.43024414 -9 7.875 C-9.77077881 8.31827637 -10.54155762 8.76155273 -11.33569336 9.21826172 C-13.55151953 10.48905169 -15.77400503 11.74712616 -18 13 C-19.03253906 13.58265625 -20.06507813 14.1653125 -21.12890625 14.765625 C-23.07956453 15.85523829 -25.03847306 16.93007622 -27 18 C-25.60376031 13.81128094 -22.65437873 12.75748118 -19 10.6875 C-17.63042191 9.89249725 -16.26192865 9.09562268 -14.89453125 8.296875 C-14.22760254 7.90822266 -13.56067383 7.51957031 -12.87353516 7.11914062 C-9.69625314 5.22121767 -6.66324181 3.1233071 -3.63671875 0.99609375 C-2 0 -2 0 0 0 Z " fill="#181CBF" transform="translate(278,520)"/>
<path d="M0 0 C0.66 0 1.32 0 2 0 C0.34908222 4.29238623 -2.73754566 6.8793915 -6 10 C-6.66 9.67 -7.32 9.34 -8 9 C-6.85459775 7.68712379 -5.70866567 6.37470979 -4.5625 5.0625 C-3.92441406 4.33160156 -3.28632812 3.60070312 -2.62890625 2.84765625 C-1.77458541 1.87860647 -0.91348825 0.91348825 0 0 Z " fill="#3150C5" transform="translate(716,637)"/>
<path d="M0 0 C0.99 0.66 1.98 1.32 3 2 C3 2.66 3 3.32 3 4 C0.7272325 5.49524178 -1.5679943 6.78399715 -4 8 C-2.25 2.25 -2.25 2.25 0 0 Z " fill="#243795" transform="translate(623,564)"/>
</svg>
